# xmcd CD database file
#
# Track frame offsets:
#	187
#	16950
#	34800
#	46075
#	61687
#	78825
#	93625
#	108712
#	124675
#	137837
#	150762
#	166825
#	179587
#
# Disc length: 2626 seconds
#
# Revision: 0
# Processed by: cddbd v1.4PL0 Copyright (c) Steve Scherf et al.
# Submitted via: CDex 1.50beta9
#
DISCID=9a0a400d
DTITLE=СВ - Московское время
DYEAR=1984
DGENRE=Blues
TTITLE0=Вот начало
TTITLE1=Лето
TTITLE2=Вот и лето прошло
TTITLE3=Осень
TTITLE4=День продолжался
TTITLE5=Когда на улице темно
TTITLE6=Песочные часы ( зима )
TTITLE7=Пили и курили
TTITLE8=Я выдохся
TTITLE9=Весна
TTITLE10=Спешит моя радость
TTITLE11=Джаз данс ( JAZZ DANCE )
TTITLE12=Беглец
EXTD=YEAR: 1984
EXTT0=
EXTT1=
EXTT2=
EXTT3=
EXTT4=
EXTT5=
EXTT6=
EXTT7=
EXTT8=
EXTT9=
EXTT10=
EXTT11=
EXTT12=
PLAYORDER=
